<svg xmlns="http://www.w3.org/2000/svg" version="1.1" xmlns:xlink="http://www.w3.org/1999/xlink" xmlns:svgjs="http://svgjs.dev/svgjs" width="1000" height="750" viewBox="0 0 1000 750"><rect width="1000" height="750" fill="#ffffff"></rect><g transform="matrix(0.834,0,0,0.834,82.49456413672641,191.76052663490827)"><svg viewBox="0 0 396 174" data-background-color="#ffffff" preserveAspectRatio="xMidYMid meet" height="439" width="1000" xmlns="http://www.w3.org/2000/svg" xmlns:xlink="http://www.w3.org/1999/xlink"><g id="tight-bounds" transform="matrix(1,0,0,1,0.239991129324153,0.08386830087445674)"><svg viewBox="0 0 395.52 173.8322633982511" height="173.8322633982511" width="395.52"><g><svg viewBox="0 0 682.589052690168 300" height="173.8322633982511" width="395.52"><g><rect width="8.52668133066924" height="200.99999999999997" x="314.43066373618035" y="49.500000000000014" fill="#5e2750" opacity="1" stroke-width="0" stroke="transparent" fill-opacity="1" class="rect-o-0" data-fill-palette-color="primary" rx="1%" id="o-0" data-palette-color="#5e2750"></rect></g><g transform="matrix(1,0,0,1,345.27850038273766,50)"><svg viewBox="0 0 337.3105523074303 200" height="200" width="337.3105523074303"><g id="textblocktransform"><svg viewBox="0 0 337.3105523074303 200" height="200" width="337.3105523074303" id="textblock"><g><svg viewBox="0 0 337.3105523074303 200" height="200" width="337.3105523074303"><g transform="matrix(1,0,0,1,0,0)"><svg width="337.3105523074303" viewBox="0.3500014543533325 -34.94999694824219 185.69998168945312 108.453125" height="200" data-palette-color="#5e2750"><svg></svg><svg></svg><g class="wordmark-text-0" data-fill-palette-color="primary" id="text-0"><path xmlns="http://www.w3.org/2000/svg" d="M4-15.35c-0.033-0.233-0.05-0.617-0.05-1.15v0c0-1.3 0.133-2.567 0.4-3.8 0.267-1.233 0.65-2.583 1.15-4.05v0c0.5-1.367 1.45-2.733 2.85-4.1 1.4-1.367 2.967-2.493 4.7-3.38 1.733-0.88 3.3-1.32 4.7-1.32v0c1.433 0 2.833 0.523 4.2 1.57 1.367 1.053 2.233 2.247 2.6 3.58v0c0.067 0.4 0.1 0.667 0.1 0.8v0c0 0.5-0.14 0.873-0.42 1.12-0.287 0.253-0.663 0.38-1.13 0.38v0c-0.367 0-0.65-0.017-0.85-0.05v0c-0.1 0-0.25-0.067-0.45-0.2v0c-0.967-0.533-1.9-0.8-2.8-0.8v0c-1.7 0-3.383 0.883-5.05 2.65v0c-2.833 2.967-4.25 6.5-4.25 10.6v0c0 1.467 0.15 2.883 0.45 4.25v0c0.333 1.533 0.927 2.657 1.78 3.37 0.847 0.72 1.987 1.08 3.42 1.08v0c0.5 0 1.05-0.05 1.65-0.15v0c2.1-0.267 4.033-0.91 5.8-1.93 1.767-1.013 3.717-2.37 5.85-4.07v0c0.5-0.4 1.383-1.233 2.65-2.5v0l1-1.05c0.433-0.433 0.81-0.743 1.13-0.93 0.313-0.18 0.603-0.27 0.87-0.27v0c0.433 0 0.967 0.217 1.6 0.65v0c0.7 0.5 1.05 1.133 1.05 1.9v0c0 0.533-0.183 1.033-0.55 1.5v0c-0.133 0.233-0.5 0.773-1.1 1.62-0.6 0.853-1.183 1.613-1.75 2.28-0.567 0.667-1.133 1.233-1.7 1.7v0c-3.067 2.7-6.267 4.517-9.6 5.45v0c-1.467 0.4-2.933 0.6-4.4 0.6v0c-2.7 0-5.09-0.683-7.17-2.05-2.087-1.367-3.713-3.16-4.88-5.38-1.167-2.213-1.767-4.52-1.8-6.92v0zM44.75-21c0.833 0.233 1.427 0.517 1.78 0.85 0.347 0.333 0.52 0.783 0.52 1.35v0c0 0.267-0.05 0.617-0.15 1.05v0c-0.367 1.5-0.567 3-0.6 4.5v0c-0.033 1.7 0.233 3.267 0.8 4.7v0c0.2 0.5 0.393 0.857 0.58 1.07 0.18 0.22 0.403 0.33 0.67 0.33v0c0.333 0 0.767-0.3 1.3-0.9v0c1.233-1.467 2.15-2.933 2.75-4.4 0.6-1.467 0.967-2.983 1.1-4.55v0c0.1-1.033 0.267-1.683 0.5-1.95v0c0.133-0.133 0.35-0.217 0.65-0.25 0.3-0.033 0.733-0.05 1.3-0.05v0c0.9 0.067 1.527 0.15 1.88 0.25 0.347 0.1 0.587 0.267 0.72 0.5 0.133 0.233 0.2 0.617 0.2 1.15v0l-0.05 2.35c0 0.5-0.017 1.233-0.05 2.2v0c-0.1 3-0.183 5.233-0.25 6.7v0c-0.033 1.167-0.383 2.633-1.05 4.4v0c-0.067 0.1-0.25 0.24-0.55 0.42-0.3 0.187-0.567 0.297-0.8 0.33v0c-0.067 0-0.207-0.11-0.42-0.33-0.22-0.213-0.38-0.403-0.48-0.57v0c-0.233-0.533-0.5-1.25-0.8-2.15v0l-0.4-0.95-0.1-0.3-0.15 0.15-0.8 0.5c-0.4 0.333-0.833 0.6-1.3 0.8v0c-0.767 0.467-1.683 0.7-2.75 0.7v0c-1.333 0-2.6-0.377-3.8-1.13-1.2-0.747-2.15-1.77-2.85-3.07v0c-1.133-2-1.7-4.317-1.7-6.95v0c0-1.333 0.183-3.017 0.55-5.05v0c0.067-0.5 0.383-0.933 0.95-1.3v0c0.5-0.367 1.083-0.55 1.75-0.55v0c0.333 0 0.683 0.05 1.05 0.15zM71.05-2.3c0.667-0.8 1.15-1.433 1.45-1.9v0c0.367-0.5 0.75-0.75 1.15-0.75v0c0.4 0 0.7 0.25 0.9 0.75v0c0.467 1.333 0.7 2.383 0.7 3.15v0c0 0.333-0.017 0.583-0.05 0.75v0c-0.133 0.667-0.507 1.133-1.12 1.4-0.62 0.267-1.347 0.367-2.18 0.3v0c-0.3 0-0.807 0-1.52 0-0.72 0-1.337-0.1-1.85-0.3-0.52-0.2-0.98-0.533-1.38-1v0c-0.867-1.033-1.3-2.033-1.3-3v0c0-7.8-0.033-13.667-0.1-17.6v0l-0.05-8.8c0-1.167-0.117-2.233-0.35-3.2v0c-0.033-0.167-0.05-0.367-0.05-0.6v0c0-1.233 0.833-1.85 2.5-1.85v0c1.1 0 2.027 0.357 2.78 1.07 0.747 0.72 1.087 1.663 1.02 2.83v0c-0.1 1.767-0.233 4.417-0.4 7.95v0l-0.3 6c-0.267 5.667-0.45 9.917-0.55 12.75v0c-0.033 0.333-0.017 0.7 0.05 1.1 0.067 0.4 0.117 0.65 0.15 0.75v0zM83.5-23.3c-0.067 0.2-0.307 0.417-0.72 0.65-0.42 0.233-0.763 0.45-1.03 0.65v0l-1.4-0.75c-1.367-0.733-2.3-1.317-2.8-1.75v0c-0.267-0.2-0.4-0.45-0.4-0.75v0c0-0.2 0.077-0.377 0.23-0.53 0.147-0.147 0.37-0.22 0.67-0.22v0c1.3 0 2.883 0.333 4.75 1v0c0.2 0.033 0.383 0.257 0.55 0.67 0.167 0.42 0.217 0.763 0.15 1.03zM79-14c0.1-0.433 0.167-0.75 0.2-0.95 0.033-0.2 0.05-0.417 0.05-0.65v0c0-0.467 0.143-0.833 0.43-1.1 0.28-0.267 0.82-0.4 1.62-0.4v0c0.933 0 1.76 0.29 2.48 0.87 0.713 0.587 1.153 1.347 1.32 2.28v0c0.1 0.467 0.167 0.983 0.2 1.55 0.033 0.567 0.05 0.933 0.05 1.1v0l0.7 8.55c0.1 0.9-0.023 1.59-0.37 2.07-0.353 0.487-1.013 0.73-1.98 0.73v0c-0.833 0-1.54-0.233-2.12-0.7-0.587-0.467-0.947-1.067-1.08-1.8v0l-1.3-10.6zM98.3-18.85c0 0.2-0.033 0.46-0.1 0.78-0.067 0.313-0.083 0.52-0.05 0.62v0c2.3-0.5 4.25-0.75 5.85-0.75v0c2.5 0 4.383 1.2 5.65 3.6v0c1.033 2.033 1.55 4.283 1.55 6.75v0c0 0.633-0.067 1.55-0.2 2.75v0c-0.1 0.8-0.417 1.44-0.95 1.92-0.533 0.487-1.167 0.73-1.9 0.73v0c-0.767 0-1.307-0.143-1.62-0.43-0.32-0.28-0.503-0.603-0.55-0.97-0.053-0.367-0.08-0.95-0.08-1.75v0l-0.05-1.05c-0.067-2-0.2-3.733-0.4-5.2v0c-0.1-0.6-0.323-1.027-0.67-1.28-0.353-0.247-0.813-0.37-1.38-0.37v0c-0.533 0-1.167 0.083-1.9 0.25v0c-1.133 0.3-1.89 0.533-2.27 0.7-0.387 0.167-0.947 0.517-1.68 1.05v0c-0.233 0.167-0.4 0.5-0.5 1-0.1 0.5-0.15 0.783-0.15 0.85v0c-0.433 2.133-0.9 4.683-1.4 7.65v0c-0.033 0.133-0.1 0.45-0.2 0.95-0.1 0.5-0.29 0.86-0.57 1.08-0.287 0.213-0.697 0.287-1.23 0.22v0c-2.1-0.267-3.167-1.15-3.2-2.65v0c-0.033-1.933 0.117-4.217 0.45-6.85v0c0.233-1.9 0.45-3.433 0.65-4.6v0c0.067-0.533 0.16-1.183 0.28-1.95 0.113-0.767 0.22-1.65 0.32-2.65v0c0.1-0.767 0.2-1.333 0.3-1.7 0.1-0.367 0.333-0.677 0.7-0.93 0.367-0.247 0.933-0.37 1.7-0.37v0c0.967 0 1.767 0.217 2.4 0.65 0.633 0.433 1.033 1.05 1.2 1.85v0zM129.9-2.55c-0.3-0.133-0.6-0.2-0.9-0.2v0c-0.3 0-0.56 0.073-0.78 0.22-0.213 0.153-0.453 0.38-0.72 0.68v0c-0.4 0.4-0.817 0.733-1.25 1v0c-0.4 0.233-1.133 0.45-2.2 0.65v0c-0.467 0.067-0.85 0.1-1.15 0.1v0c-1.4 0-2.857-0.31-4.37-0.93-1.52-0.613-2.597-1.353-3.23-2.22v0c-0.667-0.933-0.983-1.933-0.95-3v0c0.033-1.6 0.7-3.2 2-4.8v0c1.267-1.533 2.427-2.617 3.48-3.25 1.047-0.633 2.487-1.033 4.32-1.2v0c0.4 0 0.977-0.067 1.73-0.2 0.747-0.133 1.12-0.317 1.12-0.55v0c0-0.467-0.207-0.893-0.62-1.28-0.42-0.38-1.263-0.57-2.53-0.57v0c-0.467 0-1.167 0.033-2.1 0.1v0c-0.933 0.067-1.583 0.1-1.95 0.1v0c-1.133 0-1.95-0.183-2.45-0.55v0c-0.133-0.067-0.2-0.383-0.2-0.95v0c0-1 0.35-1.633 1.05-1.9v0c1.433-0.533 2.917-0.817 4.45-0.85v0c1.933 0 3.727 0.423 5.38 1.27 1.647 0.853 2.853 1.913 3.62 3.18v0c0.767 1.267 1.267 3.017 1.5 5.25v0c0.267 2.5 0.4 5.683 0.4 9.55v0c0 1.067-0.15 1.683-0.45 1.85v0c-0.267 0.167-0.517 0.25-0.75 0.25v0c-0.3 0-0.573-0.09-0.82-0.27-0.253-0.187-0.53-0.447-0.83-0.78v0c-0.3-0.367-0.567-0.6-0.8-0.7zM122-3.15c1.567-0.467 3.1-1.217 4.6-2.25v0c0.333-0.233 0.633-0.533 0.9-0.9 0.267-0.367 0.433-0.6 0.5-0.7v0c0.067-0.1 0.127-0.393 0.18-0.88 0.047-0.48 0.053-0.87 0.02-1.17v0c-0.033-0.1-0.09-0.367-0.17-0.8-0.087-0.433-0.213-0.817-0.38-1.15v0c-0.167-0.267-0.433-0.517-0.8-0.75-0.367-0.233-0.7-0.333-1-0.3v0c-0.633 0.033-1.317 0.267-2.05 0.7-0.733 0.433-1.417 1.017-2.05 1.75v0c-0.633 0.767-1.123 1.54-1.47 2.32-0.353 0.787-0.53 1.513-0.53 2.18v0c0.067 0.9 0.317 1.5 0.75 1.8v0c0.233 0.167 0.517 0.25 0.85 0.25v0c0.267 0 0.483-0.033 0.65-0.1zM145.9-21.2c0.1 0.333 0.117 0.85 0.05 1.55v0l-0.6 5.9c0.167-0.133 0.417-0.61 0.75-1.43 0.333-0.813 0.65-1.48 0.95-2 0.3-0.513 0.533-0.853 0.7-1.02v0c1.567-1.5 3.333-2.4 5.3-2.7 1.967-0.3 4.133-0.433 6.5-0.4v0c0.233 0 0.493 0.09 0.78 0.27 0.28 0.187 0.42 0.337 0.42 0.45 0 0.12-0.1 0.303-0.3 0.55-0.2 0.253-0.383 0.413-0.55 0.48v0c-2 0.667-3.757 1.433-5.27 2.3-1.52 0.867-2.83 2-3.93 3.4v0c-2.6 3.3-4.1 6.7-4.5 10.2v0c-0.1 0.933-0.383 1.557-0.85 1.87-0.467 0.32-1.117 0.48-1.95 0.48v0c-0.933 0-1.767-0.4-2.5-1.2-0.733-0.8-1.1-1.683-1.1-2.65v0c0.033-3.533 0.05-8.833 0.05-15.9v0c0-0.967 0.217-1.643 0.65-2.03 0.433-0.38 1.217-0.57 2.35-0.57v0c0.833 0 1.543 0.233 2.13 0.7 0.58 0.467 0.887 1.05 0.92 1.75zM161.9 14.1c0.233-0.067 0.533-0.157 0.9-0.27 0.367-0.12 0.683-0.197 0.95-0.23v0c2.4-0.067 4.16-0.567 5.28-1.5 1.113-0.933 1.82-2.583 2.12-4.95v0c0.3-2.367 0.6-5.917 0.9-10.65v0l0.2-3.2c0.033-0.767-0.107-1.357-0.42-1.77-0.32-0.42-0.897-0.68-1.73-0.78v0c-1.8-0.2-3.357-0.9-4.67-2.1-1.32-1.2-2.23-2.717-2.73-4.55v0c-0.167-0.567-0.35-1.233-0.55-2v0c-0.4-1.467-0.683-2.567-0.85-3.3v0-0.1c0-0.2 0.067-0.427 0.2-0.68 0.133-0.247 0.267-0.42 0.4-0.52v0c0.533-0.367 1.15-0.55 1.85-0.55v0c0.933 0 1.767 0.323 2.5 0.97 0.733 0.653 1.15 1.463 1.25 2.43v0c0.167 1.5 0.45 3.133 0.85 4.9v0c0.167 0.7 0.483 1.05 0.95 1.05v0c0.367 0 0.683-0.183 0.95-0.55v0c0.867-1.1 1.533-2.167 2-3.2v0c0.567-1.267 1.4-1.9 2.5-1.9v0c0.3 0 0.517 0.017 0.65 0.05v0c1.733 0.333 2.567 1.4 2.5 3.2v0l-0.15 4.65c-0.133 4.133-0.283 7.217-0.45 9.25v0l-0.15 2c-0.2 2.733-0.39 4.86-0.57 6.38-0.187 1.513-0.48 3.037-0.88 4.57v0c-0.5 1.933-1.417 3.377-2.75 4.33-1.333 0.947-2.9 1.42-4.7 1.42v0c-1.433 0-2.867-0.283-4.3-0.85v0c-0.3-0.133-0.65-0.307-1.05-0.52-0.4-0.22-0.7-0.397-0.9-0.53v0z" fill="#5e2750" fill-rule="nonzero" stroke="none" stroke-width="1" stroke-linecap="butt" stroke-linejoin="miter" stroke-miterlimit="10" stroke-dasharray="" stroke-dashoffset="0" font-family="none" font-weight="none" font-size="none" text-anchor="none" style="mix-blend-mode: normal" data-fill-palette-color="primary" opacity="1"></path><path xmlns="http://www.w3.org/2000/svg" d="M17.55 23.8c0.367 0.067 1.183 1.34 2.45 3.82 1.267 2.487 2.817 5.697 4.65 9.63v0l1.6 3.35c0.7-0.767 1.35-1.66 1.95-2.68 0.6-1.013 1.35-2.387 2.25-4.12v0c1.033-1.967 1.75-3.233 2.15-3.8v0c1.6-2.433 3.333-5.017 5.2-7.75v0c0.233-0.367 0.65-0.617 1.25-0.75v0c0.1-0.033 0.267-0.05 0.5-0.05v0c0.8 0 1.693 0.333 2.68 1 0.98 0.667 1.62 1.35 1.92 2.05v0c0.067 0.133 0.1 0.383 0.1 0.75v0c0 0.333-0.017 0.583-0.05 0.75v0c-0.067 0.3-0.14 0.673-0.22 1.12-0.087 0.453-0.163 0.98-0.23 1.58v0c-1.067 8.133-1.833 14.233-2.3 18.3v0c-0.133 0.933-0.2 1.983-0.2 3.15v0l-0.1 1.6c-0.033 0.333-0.05 0.717-0.05 1.15 0 0.433-0.05 0.733-0.15 0.9-0.1 0.167-0.283 0.25-0.55 0.25v0c-0.2 0-0.5-0.05-0.9-0.15v0c-1.067-0.233-1.883-0.66-2.45-1.28-0.567-0.613-0.883-1.47-0.95-2.57v0c-0.033-0.567-0.05-1.45-0.05-2.65v0c0-1.233 0.033-3.117 0.1-5.65v0l0.05-2.75 0.1-3.95c-0.3 0.267-1.06 1.307-2.28 3.12-1.213 1.82-2.403 3.713-3.57 5.68-1.167 1.967-1.933 3.483-2.3 4.55v0c-0.333 0.833-0.657 1.45-0.97 1.85-0.32 0.4-0.697 0.6-1.13 0.6v0c-0.4 0-0.917-0.183-1.55-0.55v0c-1.8-1.1-2.9-2.617-3.3-4.55v0c-0.633-2.967-1.417-6.05-2.35-9.25v0c-0.167-0.6-0.49-1.417-0.97-2.45-0.487-1.033-0.797-1.683-0.93-1.95v0l-0.65-1.3c-4.867 6.467-8.167 12.4-9.9 17.8v0c-0.333 1.133-0.65 1.94-0.95 2.42-0.3 0.487-0.65 0.73-1.05 0.73v0c-0.633 0-1.533-0.567-2.7-1.7v0c-0.9-0.8-1.35-1.7-1.35-2.7v0c0-0.533 0.1-1.067 0.3-1.6v0c1.4-4.133 3.483-8.05 6.25-11.75v0l1.55-2.05c2.1-2.767 3.683-4.933 4.75-6.5v0c0.8-1.167 1.867-1.75 3.2-1.75v0c0.233 0 0.617 0.033 1.15 0.1zM63 52.5c-0.3-0.133-0.6-0.2-0.9-0.2v0c-0.3 0-0.557 0.073-0.77 0.22-0.22 0.153-0.463 0.38-0.73 0.68v0c-0.4 0.4-0.817 0.733-1.25 1v0c-0.4 0.233-1.133 0.45-2.2 0.65v0c-0.467 0.067-0.85 0.1-1.15 0.1v0c-1.4 0-2.857-0.31-4.37-0.93-1.52-0.613-2.597-1.353-3.23-2.22v0c-0.667-0.933-0.983-1.933-0.95-3v0c0.033-1.6 0.7-3.2 2-4.8v0c1.267-1.533 2.423-2.617 3.47-3.25 1.053-0.633 2.497-1.033 4.33-1.2v0c0.4 0 0.977-0.067 1.73-0.2 0.747-0.133 1.12-0.317 1.12-0.55v0c0-0.467-0.207-0.893-0.62-1.28-0.42-0.38-1.263-0.57-2.53-0.57v0c-0.467 0-1.167 0.033-2.1 0.1v0c-0.933 0.067-1.583 0.1-1.95 0.1v0c-1.133 0-1.95-0.183-2.45-0.55v0c-0.133-0.067-0.2-0.383-0.2-0.95v0c0-1 0.35-1.633 1.05-1.9v0c1.433-0.533 2.917-0.817 4.45-0.85v0c1.933 0 3.727 0.423 5.38 1.27 1.647 0.853 2.853 1.913 3.62 3.18v0c0.767 1.267 1.267 3.017 1.5 5.25v0c0.267 2.5 0.4 5.683 0.4 9.55v0c0 1.067-0.15 1.683-0.45 1.85v0c-0.267 0.167-0.517 0.25-0.75 0.25v0c-0.3 0-0.573-0.09-0.82-0.27-0.253-0.187-0.53-0.447-0.83-0.78v0c-0.3-0.367-0.567-0.6-0.8-0.7zM55.1 51.9c1.567-0.467 3.1-1.217 4.6-2.25v0c0.333-0.233 0.633-0.533 0.9-0.9 0.267-0.367 0.433-0.6 0.5-0.7v0c0.067-0.1 0.127-0.393 0.18-0.88 0.047-0.48 0.053-0.87 0.02-1.17v0c-0.033-0.1-0.09-0.367-0.17-0.8-0.087-0.433-0.213-0.817-0.38-1.15v0c-0.167-0.267-0.433-0.517-0.8-0.75-0.367-0.233-0.7-0.333-1-0.3v0c-0.633 0.033-1.317 0.267-2.05 0.7-0.733 0.433-1.417 1.017-2.05 1.75v0c-0.633 0.767-1.123 1.54-1.47 2.32-0.353 0.787-0.53 1.513-0.53 2.18v0c0.067 0.9 0.317 1.5 0.75 1.8v0c0.233 0.167 0.517 0.25 0.85 0.25v0c0.267 0 0.483-0.033 0.65-0.1zM88.25 42.45c-0.1 2.4-0.267 4.217-0.5 5.45-0.233 1.233-0.69 2.407-1.37 3.52-0.687 1.12-1.797 2.413-3.33 3.88v0l1.75 0.95c1.067 0.6 1.85 1.017 2.35 1.25v0c1.5 0.7 2.633 1.593 3.4 2.68 0.767 1.08 1.15 2.27 1.15 3.57v0c0 1.6-0.533 3.183-1.6 4.75v0c-1.133 1.667-2.55 2.91-4.25 3.73-1.7 0.813-3.517 1.237-5.45 1.27v0c-1.433 0.033-2.9-0.2-4.4-0.7v0c-0.7-0.233-1.4-0.74-2.1-1.52-0.7-0.787-1.257-1.663-1.67-2.63-0.42-0.967-0.613-1.817-0.58-2.55v0c0.033-0.167 0.1-0.34 0.2-0.52 0.1-0.187 0.217-0.297 0.35-0.33v0c0.033-0.033 0.1-0.05 0.2-0.05v0c0.1 0 0.243 0.043 0.43 0.13 0.18 0.08 0.303 0.137 0.37 0.17v0c0.167 0.067 0.283 0.217 0.35 0.45v0c0.467 1.033 0.983 1.85 1.55 2.45 0.567 0.6 1.317 0.867 2.25 0.8v0c3.433-0.233 5.783-1.183 7.05-2.85v0c0.433-0.533 0.793-1.143 1.08-1.83 0.28-0.68 0.42-1.32 0.42-1.92v0c0-0.867-0.207-1.5-0.62-1.9-0.42-0.4-1.063-0.683-1.93-0.85v0c-0.933-0.167-1.823-0.4-2.67-0.7-0.853-0.3-1.88-0.75-3.08-1.35v0c-0.6-0.3-1.017-0.567-1.25-0.8-0.233-0.233-0.35-0.517-0.35-0.85v0c0-0.333 0.2-1.183 0.6-2.55v0c0.067-0.2-0.243-0.533-0.93-1-0.68-0.467-1.27-0.85-1.77-1.15v0c-1.8-1.067-2.7-2.8-2.7-5.2v0c0-0.667 0.05-1.3 0.15-1.9v0c0.6-3.667 2.383-6.267 5.35-7.8v0c0.7-0.367 1.433-0.55 2.2-0.55v0c0.567 0 1.15 0.083 1.75 0.25 0.6 0.167 0.95 0.267 1.05 0.3v0l1.05 0.3c0.5 0.133 0.983 0.2 1.45 0.2v0c0.633 0 1.21-0.117 1.73-0.35 0.513-0.233 1.037-0.6 1.57-1.1v0c0.767-0.633 1.583-0.95 2.45-0.95v0c0.633 0 1.2 0.173 1.7 0.52 0.5 0.353 0.867 0.863 1.1 1.53v0c0.067 0.267 0.1 0.483 0.1 0.65v0c0 0.3-0.05 0.533-0.15 0.7v0c-0.1 0.133-0.383 0.567-0.85 1.3v0c-0.233 0.433-0.45 0.8-0.65 1.1-0.2 0.3-0.517 0.633-0.95 1v0c-0.3 0.167-0.617 0.29-0.95 0.37-0.333 0.087-0.59 0.163-0.77 0.23-0.187 0.067-0.28 0.2-0.28 0.4zM77.75 41.7c-1.033 1.2-1.55 2.417-1.55 3.65v0c0 0.867 0.277 1.69 0.83 2.47 0.547 0.787 1.387 1.463 2.52 2.03v0c1.267-0.5 2.25-1.367 2.95-2.6 0.7-1.233 1.05-2.583 1.05-4.05v0c0-0.9-0.133-1.717-0.4-2.45-0.267-0.733-0.8-1.3-1.6-1.7v0c-1.533 0.6-2.8 1.483-3.8 2.65zM100.65 31.75c-0.067 0.2-0.31 0.417-0.73 0.65-0.413 0.233-0.753 0.45-1.02 0.65v0l-1.4-0.75c-1.367-0.733-2.3-1.317-2.8-1.75v0c-0.267-0.2-0.4-0.45-0.4-0.75v0c0-0.2 0.077-0.377 0.23-0.53 0.147-0.147 0.37-0.22 0.67-0.22v0c1.3 0 2.883 0.333 4.75 1v0c0.2 0.033 0.383 0.257 0.55 0.67 0.167 0.42 0.217 0.763 0.15 1.03zM96.15 41.05c0.1-0.433 0.167-0.75 0.2-0.95 0.033-0.2 0.05-0.417 0.05-0.65v0c0-0.467 0.143-0.833 0.43-1.1 0.28-0.267 0.82-0.4 1.62-0.4v0c0.933 0 1.757 0.29 2.47 0.87 0.72 0.587 1.163 1.347 1.33 2.28v0c0.1 0.467 0.167 0.983 0.2 1.55 0.033 0.567 0.05 0.933 0.05 1.1v0l0.7 8.55c0.1 0.9-0.023 1.59-0.37 2.07-0.353 0.487-1.013 0.73-1.98 0.73v0c-0.833 0-1.54-0.233-2.12-0.7-0.587-0.467-0.947-1.067-1.08-1.8v0l-1.3-10.6zM124.6 49.95c-1 1.133-2.017 2.023-3.05 2.67-1.033 0.653-2.183 0.98-3.45 0.98v0c-0.267 0-0.633-0.033-1.1-0.1v0l-1 0.05c-4.2 0.033-7.267-1.967-9.2-6v0c-0.433-0.933-0.65-2.05-0.65-3.35v0c0-1.133 0.167-2.217 0.5-3.25 0.333-1.033 0.8-1.883 1.4-2.55v0l0.95-1.15c0.467-0.6 0.833-1.017 1.1-1.25v0c1.167-1.133 2.717-1.7 4.65-1.7v0c1 0 1.983 0.167 2.95 0.5 0.967 0.333 1.817 0.783 2.55 1.35v0c0.133 0.1 0.267 0.307 0.4 0.62 0.133 0.32 0.2 0.58 0.2 0.78v0c0 0.267-0.2 0.557-0.6 0.87-0.4 0.32-0.767 0.463-1.1 0.43v0c-2.267-0.267-4.083 0.273-5.45 1.62-1.367 1.353-2.05 3.197-2.05 5.53v0c0 1.533 0.327 2.617 0.98 3.25 0.647 0.633 1.72 0.95 3.22 0.95v0c0.933 0 1.817-0.193 2.65-0.58 0.833-0.38 1.8-0.92 2.9-1.62v0l0.95-0.6c0.333-0.167 0.777-0.277 1.33-0.33 0.547-0.047 0.97-0.087 1.27-0.12v0c-0.033 0.3-0.04 0.59-0.02 0.87 0.013 0.287 0.02 0.513 0.02 0.68v0c0 0.733-0.117 1.217-0.35 1.45zM134.15 31.75c-0.067 0.2-0.307 0.417-0.72 0.65-0.42 0.233-0.763 0.45-1.03 0.65v0l-1.4-0.75c-1.367-0.733-2.3-1.317-2.8-1.75v0c-0.267-0.2-0.4-0.45-0.4-0.75v0c0-0.2 0.077-0.377 0.23-0.53 0.147-0.147 0.37-0.22 0.67-0.22v0c1.3 0 2.883 0.333 4.75 1v0c0.2 0.033 0.383 0.257 0.55 0.67 0.167 0.42 0.217 0.763 0.15 1.03zM129.65 41.05c0.1-0.433 0.167-0.75 0.2-0.95 0.033-0.2 0.05-0.417 0.05-0.65v0c0-0.467 0.14-0.833 0.42-1.1 0.287-0.267 0.83-0.4 1.63-0.4v0c0.933 0 1.76 0.29 2.48 0.87 0.713 0.587 1.153 1.347 1.32 2.28v0c0.1 0.467 0.167 0.983 0.2 1.55 0.033 0.567 0.05 0.933 0.05 1.1v0l0.7 8.55c0.1 0.9-0.027 1.59-0.38 2.07-0.347 0.487-1.003 0.73-1.97 0.73v0c-0.833 0-1.543-0.233-2.13-0.7-0.58-0.467-0.937-1.067-1.07-1.8v0l-1.3-10.6zM156.2 52.5c-0.3-0.133-0.6-0.2-0.9-0.2v0c-0.3 0-0.56 0.073-0.78 0.22-0.213 0.153-0.453 0.38-0.72 0.68v0c-0.4 0.4-0.817 0.733-1.25 1v0c-0.4 0.233-1.133 0.45-2.2 0.65v0c-0.467 0.067-0.85 0.1-1.15 0.1v0c-1.4 0-2.86-0.31-4.38-0.93-1.513-0.613-2.587-1.353-3.22-2.22v0c-0.667-0.933-0.983-1.933-0.95-3v0c0.033-1.6 0.7-3.2 2-4.8v0c1.267-1.533 2.427-2.617 3.48-3.25 1.047-0.633 2.487-1.033 4.32-1.2v0c0.4 0 0.973-0.067 1.72-0.2 0.753-0.133 1.13-0.317 1.13-0.55v0c0-0.467-0.21-0.893-0.63-1.28-0.413-0.38-1.253-0.57-2.52-0.57v0c-0.467 0-1.167 0.033-2.1 0.1v0c-0.933 0.067-1.583 0.1-1.95 0.1v0c-1.133 0-1.95-0.183-2.45-0.55v0c-0.133-0.067-0.2-0.383-0.2-0.95v0c0-1 0.35-1.633 1.05-1.9v0c1.433-0.533 2.917-0.817 4.45-0.85v0c1.933 0 3.723 0.423 5.37 1.27 1.653 0.853 2.863 1.913 3.63 3.18v0c0.767 1.267 1.267 3.017 1.5 5.25v0c0.267 2.5 0.4 5.683 0.4 9.55v0c0 1.067-0.15 1.683-0.45 1.85v0c-0.267 0.167-0.517 0.25-0.75 0.25v0c-0.3 0-0.577-0.09-0.83-0.27-0.247-0.187-0.52-0.447-0.82-0.78v0c-0.3-0.367-0.567-0.6-0.8-0.7zM148.3 51.9c1.567-0.467 3.1-1.217 4.6-2.25v0c0.333-0.233 0.633-0.533 0.9-0.9 0.267-0.367 0.433-0.6 0.5-0.7v0c0.067-0.1 0.123-0.393 0.17-0.88 0.053-0.48 0.063-0.87 0.03-1.17v0c-0.033-0.1-0.093-0.367-0.18-0.8-0.08-0.433-0.203-0.817-0.37-1.15v0c-0.167-0.267-0.433-0.517-0.8-0.75-0.367-0.233-0.7-0.333-1-0.3v0c-0.633 0.033-1.317 0.267-2.05 0.7-0.733 0.433-1.417 1.017-2.05 1.75v0c-0.633 0.767-1.127 1.54-1.48 2.32-0.347 0.787-0.52 1.513-0.52 2.18v0c0.067 0.9 0.317 1.5 0.75 1.8v0c0.233 0.167 0.517 0.25 0.85 0.25v0c0.267 0 0.483-0.033 0.65-0.1zM173.15 36.2c0 0.2-0.033 0.46-0.1 0.78-0.067 0.313-0.083 0.52-0.05 0.62v0c2.3-0.5 4.25-0.75 5.85-0.75v0c2.5 0 4.383 1.2 5.65 3.6v0c1.033 2.033 1.55 4.283 1.55 6.75v0c0 0.633-0.067 1.55-0.2 2.75v0c-0.1 0.8-0.417 1.44-0.95 1.92-0.533 0.487-1.167 0.73-1.9 0.73v0c-0.767 0-1.31-0.143-1.63-0.43-0.313-0.28-0.497-0.603-0.55-0.97-0.047-0.367-0.07-0.95-0.07-1.75v0l-0.05-1.05c-0.067-2-0.2-3.733-0.4-5.2v0c-0.1-0.6-0.327-1.027-0.68-1.28-0.347-0.247-0.803-0.37-1.37-0.37v0c-0.533 0-1.167 0.083-1.9 0.25v0c-1.133 0.3-1.893 0.533-2.28 0.7-0.38 0.167-0.937 0.517-1.67 1.05v0c-0.233 0.167-0.4 0.5-0.5 1-0.1 0.5-0.15 0.783-0.15 0.85v0c-0.433 2.133-0.9 4.683-1.4 7.65v0c-0.033 0.133-0.1 0.45-0.2 0.95-0.1 0.5-0.293 0.86-0.58 1.08-0.28 0.213-0.687 0.287-1.22 0.22v0c-2.1-0.267-3.167-1.15-3.2-2.65v0c-0.033-1.933 0.117-4.217 0.45-6.85v0c0.233-1.9 0.45-3.433 0.65-4.6v0c0.067-0.533 0.157-1.183 0.27-1.95 0.12-0.767 0.23-1.65 0.33-2.65v0c0.1-0.767 0.2-1.333 0.3-1.7 0.1-0.367 0.333-0.677 0.7-0.93 0.367-0.247 0.933-0.37 1.7-0.37v0c0.967 0 1.767 0.217 2.4 0.65 0.633 0.433 1.033 1.05 1.2 1.85v0z" fill="#5e2750" fill-rule="nonzero" stroke="none" stroke-width="1" stroke-linecap="butt" stroke-linejoin="miter" stroke-miterlimit="10" stroke-dasharray="" stroke-dashoffset="0" font-family="none" font-weight="none" font-size="none" text-anchor="none" style="mix-blend-mode: normal" data-fill-palette-color="primary" opacity="1"></path></g></svg></g></svg></g></svg></g></svg></g><g><svg viewBox="0 0 292.1095084202923 300" height="300" width="292.1095084202923"><g><svg xmlns="http://www.w3.org/2000/svg" xmlns:xlink="http://www.w3.org/1999/xlink" version="1.1" x="0" y="0" viewBox="-8.85551643371582 -10 87.655517578125 90.02327728271484" style="enable-background:new -15 -15 100 100;" xml:space="preserve" height="300" width="292.1095084202923" class="icon-icon-0" data-fill-palette-color="accent" id="icon-0"><path d="M75.6-9.1l0.5 3.8 1.7 0.6-1.7 0.6-0.5 3.7L75-4.1l-1.7-0.6L75-5.3 75.6-9.1z" fill="#ffd700" data-fill-palette-color="accent"></path><path d="M66.5-10l1.1 7.9L71.2-1l-3.6 1.2-1.1 7.7-1.1-7.7L61.9-1l3.6-1.2L66.5-10z" fill="#ffd700" data-fill-palette-color="accent"></path><path d="M75.8 2.1l0.7 5.1L78.8 8l-2.3 0.8-0.7 5-0.7-5L72.8 8l2.3-0.7L75.8 2.1z" fill="#ffd700" data-fill-palette-color="accent"></path><path d="M0.2 21.6l0.6 4.2 1.9 0.6-1.9 0.6-0.6 4.2-0.6-4.2-1.9-0.6 1.9-0.6L0.2 21.6z" fill="#ffd700" data-fill-palette-color="accent"></path><g fill="#ffd700" data-fill-palette-color="accent"><g fill="#ffd700" data-fill-palette-color="accent"><path d="M73.9 15.9c-0.7 4.1-16.7 4.6-31.1 2.1C28.3 15.4 13.5 9.4 14.2 5.3c0.7-4.1 16.7-4.6 31.1-2.1C59.7 5.8 74.6 11.8 73.9 15.9z" fill="#ffd700" data-fill-palette-color="accent"></path></g></g><g fill="#ffd700" data-fill-palette-color="accent"><path d="M62.5 60.7l1-4 10-39.4c0 0 0 0 0 0-0.1 0.1-0.1 0.2-0.2 0.3 0 0 0 0 0 0-1.2 1.5-4.9 2.3-9.7 2.6 0 0-0.1 0-0.1 0-0.3 0-0.6 0-0.9 0-0.1 0-0.2 0-0.2 0-0.3 0-0.5 0-0.8 0-0.1 0-0.2 0-0.3 0-0.3 0-0.5 0-0.8 0-0.1 0-0.3 0-0.4 0-0.2 0-0.5 0-0.7 0-0.2 0-0.3 0-0.5 0-0.2 0-0.5 0-0.7 0-0.2 0-0.4 0-0.5 0-0.2 0-0.4 0-0.7 0-0.2 0-0.4 0-0.6 0-0.2 0-0.4 0-0.6 0-0.2 0-0.4 0-0.6 0-0.2 0-0.4 0-0.6 0-0.2 0-0.5 0-0.7 0-0.2 0-0.4 0-0.6 0-0.2 0-0.5 0-0.7-0.1-0.2 0-0.4 0-0.6 0-0.3 0-0.5 0-0.8-0.1-0.2 0-0.4 0-0.5 0-0.3 0-0.5-0.1-0.8-0.1-0.2 0-0.3 0-0.5-0.1-0.3 0-0.6-0.1-0.9-0.1-0.2 0-0.3 0-0.5-0.1-0.3 0-0.6-0.1-0.9-0.1-0.1 0-0.3 0-0.4-0.1-0.3 0-0.7-0.1-1-0.1-0.1 0-0.2 0-0.3 0-0.4-0.1-0.9-0.1-1.3-0.2 0 0 0 0 0 0C43.5 19 43 19 42.6 18.9c-0.4-0.1-0.9-0.2-1.3-0.2 0 0 0 0 0 0-0.4-0.1-0.9-0.2-1.3-0.3-0.1 0-0.2 0-0.3-0.1-0.3-0.1-0.7-0.1-1-0.2-0.1 0-0.3-0.1-0.4-0.1-0.3-0.1-0.6-0.1-0.9-0.2-0.2 0-0.3-0.1-0.4-0.1-0.3-0.1-0.6-0.1-0.9-0.2-0.2 0-0.3-0.1-0.5-0.1-0.3-0.1-0.5-0.1-0.8-0.2-0.2 0-0.4-0.1-0.5-0.1-0.2-0.1-0.5-0.1-0.7-0.2-0.2-0.1-0.4-0.1-0.6-0.2-0.2-0.1-0.5-0.1-0.7-0.2-0.2-0.1-0.4-0.1-0.6-0.2-0.2-0.1-0.4-0.1-0.6-0.2-0.2-0.1-0.4-0.1-0.6-0.2-0.2-0.1-0.4-0.1-0.6-0.2-0.2-0.1-0.4-0.1-0.6-0.2-0.2-0.1-0.4-0.1-0.6-0.2-0.2-0.1-0.4-0.1-0.6-0.2-0.2-0.1-0.3-0.1-0.5-0.2-0.2-0.1-0.4-0.2-0.6-0.2-0.2-0.1-0.3-0.1-0.5-0.2-0.2-0.1-0.5-0.2-0.7-0.2-0.1 0-0.3-0.1-0.4-0.1-0.2-0.1-0.5-0.2-0.7-0.3-0.1 0-0.2-0.1-0.3-0.1-0.3-0.1-0.5-0.2-0.8-0.3-0.1 0-0.1-0.1-0.2-0.1-0.3-0.1-0.5-0.2-0.8-0.3 0 0 0 0-0.1 0-4.8-2.1-8-4.3-8.3-6.2L10 47.3l-0.4 4.1C-1 51.8-8.1 54.2-8.8 58.1c-1.2 6.7 17.2 15.6 41 19.8C56 82 76.3 80 77.4 73.3 78.1 69.4 72.2 64.7 62.5 60.7zM60.7 68.3L60.7 68.3C60.7 68.4 60.7 68.4 60.7 68.3c-0.6 3.6-14.6 4.1-27.2 1.9C20.9 68 8 62.8 8.6 59.2l0.9-7.6 0 0c0 0 0 0 0-0.1 0-0.1 0.1-0.3 0.1-0.4C10 54.8 22.7 59.8 35 62s25.9 1.8 27.5-1.5c0 0.1 0 0.3 0 0.4L60.7 68.3z" fill="#ffd700" data-fill-palette-color="accent"></path></g></svg></g></svg></g></svg></g><defs></defs></svg><rect width="395.52" height="173.8322633982511" fill="none" stroke="none" visibility="hidden"></rect></g></svg></g></svg>