<?xml version="1.0" encoding="UTF-8"?>
<svg xmlns="http://www.w3.org/2000/svg" xmlns:xlink="http://www.w3.org/1999/xlink" width="93px" height="70px" viewBox="0 0 93 70" version="1.1">
<defs>
<clipPath id="clip1">
  <path d="M 47 23.605469 L 84 23.605469 L 84 35 L 47 35 Z M 47 23.605469 "/>
</clipPath>
<clipPath id="clip2">
  <path d="M 46.90625 35 L 85.152344 35 L 85.152344 46.363281 L 46.90625 46.363281 Z M 46.90625 35 "/>
</clipPath>
<clipPath id="clip3">
  <path d="M 38 18 L 40.875 18 L 40.875 22 L 38 22 Z M 38 18 "/>
</clipPath>
<clipPath id="clip4">
  <path d="M 34 17.914062 L 39 17.914062 L 39 25 L 34 25 Z M 34 17.914062 "/>
</clipPath>
<clipPath id="clip5">
  <path d="M 38 22 L 40.875 22 L 40.875 27 L 38 27 Z M 38 22 "/>
</clipPath>
<clipPath id="clip6">
  <path d="M 7.753906 24 L 40.875 24 L 40.875 52.054688 L 7.753906 52.054688 Z M 7.753906 24 "/>
</clipPath>
</defs>
<g id="surface1">
<rect x="0" y="0" width="93" height="70" style="fill:rgb(100%,100%,100%);fill-opacity:1;stroke:none;"/>
<path style=" stroke:none;fill-rule:nonzero;fill:rgb(36.862745%,15.294118%,31.372549%);fill-opacity:1;" d="M 43.890625 23.546875 C 44.15625 23.546875 44.375 23.894531 44.375 24.324219 L 44.375 45.644531 C 44.375 46.074219 44.15625 46.421875 43.890625 46.421875 C 43.625 46.421875 43.40625 46.074219 43.40625 45.644531 L 43.40625 24.324219 C 43.40625 23.894531 43.625 23.546875 43.890625 23.546875 Z M 43.890625 23.546875 "/>
<g clip-path="url(#clip1)" clip-rule="nonzero">
<path style=" stroke:none;fill-rule:nonzero;fill:rgb(36.862745%,15.294118%,31.372549%);fill-opacity:1;" d="M 47.65625 27.824219 C 47.648438 27.777344 47.644531 27.699219 47.644531 27.589844 C 47.644531 27.320312 47.671875 27.058594 47.730469 26.804688 C 47.785156 26.546875 47.863281 26.269531 47.964844 25.964844 C 48.070312 25.683594 48.265625 25.402344 48.550781 25.117188 C 48.839844 24.835938 49.164062 24.601562 49.519531 24.417969 C 49.878906 24.238281 50.199219 24.148438 50.488281 24.148438 C 50.785156 24.148438 51.070312 24.253906 51.355469 24.472656 C 51.636719 24.6875 51.8125 24.9375 51.890625 25.210938 C 51.902344 25.292969 51.910156 25.347656 51.910156 25.375 C 51.910156 25.480469 51.878906 25.558594 51.824219 25.609375 C 51.765625 25.660156 51.6875 25.6875 51.589844 25.6875 C 51.515625 25.6875 51.457031 25.683594 51.414062 25.675781 C 51.394531 25.675781 51.363281 25.664062 51.324219 25.636719 C 51.125 25.523438 50.929688 25.46875 50.746094 25.46875 C 50.394531 25.46875 50.050781 25.652344 49.707031 26.015625 C 49.121094 26.628906 48.832031 27.359375 48.832031 28.207031 C 48.832031 28.511719 48.863281 28.804688 48.921875 29.085938 C 48.992188 29.402344 49.113281 29.636719 49.289062 29.785156 C 49.464844 29.933594 49.699219 30.007812 49.996094 30.007812 C 50.097656 30.007812 50.210938 29.996094 50.335938 29.976562 C 50.765625 29.921875 51.164062 29.789062 51.527344 29.578125 C 51.890625 29.367188 52.292969 29.085938 52.734375 28.734375 C 52.835938 28.652344 53.019531 28.480469 53.28125 28.21875 L 53.484375 28 C 53.574219 27.914062 53.652344 27.847656 53.71875 27.808594 C 53.78125 27.773438 53.84375 27.753906 53.898438 27.753906 C 53.988281 27.753906 54.097656 27.796875 54.226562 27.886719 C 54.371094 27.992188 54.441406 28.121094 54.441406 28.28125 C 54.441406 28.390625 54.40625 28.496094 54.328125 28.589844 C 54.300781 28.640625 54.226562 28.75 54.101562 28.925781 C 53.980469 29.101562 53.859375 29.257812 53.742188 29.398438 C 53.625 29.535156 53.507812 29.652344 53.394531 29.75 C 52.761719 30.304688 52.101562 30.683594 51.414062 30.875 C 51.113281 30.957031 50.8125 31 50.507812 31 C 49.953125 31 49.460938 30.859375 49.03125 30.574219 C 48.601562 30.292969 48.269531 29.921875 48.027344 29.464844 C 47.785156 29.003906 47.664062 28.527344 47.65625 28.03125 Z M 56.050781 26.660156 C 56.222656 26.707031 56.34375 26.765625 56.417969 26.832031 C 56.488281 26.902344 56.523438 26.996094 56.523438 27.113281 C 56.523438 27.167969 56.511719 27.242188 56.492188 27.328125 C 56.417969 27.640625 56.375 27.949219 56.367188 28.261719 C 56.363281 28.613281 56.417969 28.933594 56.535156 29.230469 C 56.574219 29.335938 56.613281 29.410156 56.652344 29.453125 C 56.691406 29.5 56.734375 29.519531 56.789062 29.519531 C 56.859375 29.519531 56.949219 29.460938 57.058594 29.335938 C 57.3125 29.03125 57.5 28.730469 57.625 28.425781 C 57.75 28.121094 57.824219 27.808594 57.851562 27.484375 C 57.871094 27.273438 57.90625 27.136719 57.953125 27.082031 C 57.980469 27.054688 58.027344 27.039062 58.089844 27.03125 C 58.148438 27.023438 58.238281 27.019531 58.355469 27.019531 C 58.542969 27.035156 58.671875 27.050781 58.742188 27.070312 C 58.816406 27.09375 58.863281 27.125 58.890625 27.175781 C 58.917969 27.222656 58.933594 27.300781 58.933594 27.414062 L 58.921875 27.898438 C 58.921875 28 58.917969 28.152344 58.914062 28.351562 C 58.890625 28.972656 58.875 29.433594 58.859375 29.738281 C 58.855469 29.980469 58.78125 30.28125 58.644531 30.648438 C 58.632812 30.667969 58.59375 30.695312 58.53125 30.734375 C 58.46875 30.773438 58.414062 30.796875 58.367188 30.800781 C 58.351562 30.800781 58.324219 30.78125 58.28125 30.734375 C 58.234375 30.691406 58.203125 30.652344 58.179688 30.617188 C 58.132812 30.507812 58.078125 30.359375 58.015625 30.171875 L 57.933594 29.976562 L 57.914062 29.914062 L 57.882812 29.945312 L 57.71875 30.046875 C 57.636719 30.117188 57.546875 30.171875 57.449219 30.214844 C 57.292969 30.308594 57.101562 30.359375 56.882812 30.359375 C 56.609375 30.359375 56.347656 30.28125 56.101562 30.125 C 55.855469 29.96875 55.660156 29.757812 55.515625 29.488281 C 55.28125 29.078125 55.164062 28.597656 55.164062 28.054688 C 55.164062 27.777344 55.203125 27.429688 55.277344 27.007812 C 55.289062 26.90625 55.355469 26.816406 55.472656 26.742188 C 55.574219 26.664062 55.695312 26.628906 55.832031 26.628906 C 55.902344 26.628906 55.972656 26.636719 56.050781 26.660156 Z M 61.464844 30.523438 C 61.605469 30.359375 61.703125 30.226562 61.765625 30.132812 C 61.839844 30.027344 61.917969 29.976562 62 29.976562 C 62.085938 29.976562 62.144531 30.027344 62.1875 30.132812 C 62.285156 30.40625 62.332031 30.625 62.332031 30.78125 C 62.332031 30.851562 62.328125 30.902344 62.320312 30.9375 C 62.292969 31.074219 62.214844 31.171875 62.089844 31.226562 C 61.960938 31.28125 61.8125 31.300781 61.640625 31.289062 C 61.578125 31.289062 61.476562 31.289062 61.328125 31.289062 C 61.179688 31.289062 61.054688 31.269531 60.949219 31.226562 C 60.839844 31.183594 60.746094 31.117188 60.664062 31.019531 C 60.484375 30.804688 60.394531 30.597656 60.394531 30.398438 C 60.394531 28.789062 60.386719 27.574219 60.375 26.761719 L 60.363281 24.941406 C 60.363281 24.703125 60.339844 24.480469 60.292969 24.28125 C 60.285156 24.246094 60.28125 24.207031 60.28125 24.15625 C 60.28125 23.902344 60.453125 23.773438 60.796875 23.773438 C 61.023438 23.773438 61.214844 23.847656 61.371094 23.996094 C 61.523438 24.144531 61.59375 24.339844 61.578125 24.582031 C 61.558594 24.945312 61.53125 25.492188 61.496094 26.222656 L 61.433594 27.464844 C 61.378906 28.636719 61.34375 29.515625 61.320312 30.101562 C 61.316406 30.167969 61.320312 30.246094 61.332031 30.328125 C 61.347656 30.410156 61.355469 30.460938 61.363281 30.480469 Z M 64.03125 26.183594 C 64.015625 26.222656 63.96875 26.269531 63.882812 26.316406 C 63.796875 26.367188 63.726562 26.410156 63.671875 26.453125 L 63.382812 26.296875 C 63.101562 26.144531 62.90625 26.023438 62.804688 25.933594 C 62.75 25.894531 62.722656 25.839844 62.722656 25.78125 C 62.722656 25.738281 62.738281 25.703125 62.769531 25.671875 C 62.800781 25.640625 62.847656 25.625 62.90625 25.625 C 63.175781 25.625 63.5 25.695312 63.886719 25.832031 C 63.925781 25.839844 63.964844 25.882812 64 25.96875 C 64.035156 26.058594 64.042969 26.128906 64.03125 26.183594 Z M 63.105469 28.105469 C 63.125 28.015625 63.136719 27.949219 63.144531 27.910156 C 63.152344 27.867188 63.15625 27.824219 63.15625 27.773438 C 63.15625 27.679688 63.183594 27.601562 63.242188 27.546875 C 63.300781 27.492188 63.414062 27.464844 63.578125 27.464844 C 63.769531 27.464844 63.941406 27.523438 64.089844 27.644531 C 64.234375 27.765625 64.324219 27.921875 64.359375 28.117188 C 64.378906 28.210938 64.394531 28.320312 64.402344 28.4375 C 64.40625 28.554688 64.410156 28.628906 64.410156 28.664062 L 64.554688 30.429688 C 64.578125 30.617188 64.550781 30.757812 64.480469 30.859375 C 64.40625 30.960938 64.269531 31.007812 64.070312 31.007812 C 63.898438 31.007812 63.753906 30.960938 63.636719 30.863281 C 63.515625 30.769531 63.441406 30.644531 63.414062 30.492188 L 63.144531 28.300781 Z M 67.078125 27.101562 C 67.078125 27.144531 67.070312 27.199219 67.058594 27.265625 C 67.042969 27.328125 67.042969 27.371094 67.046875 27.390625 C 67.523438 27.289062 67.921875 27.238281 68.253906 27.238281 C 68.769531 27.238281 69.15625 27.484375 69.417969 27.980469 C 69.628906 28.402344 69.734375 28.867188 69.734375 29.375 C 69.734375 29.507812 69.722656 29.695312 69.695312 29.945312 C 69.675781 30.109375 69.609375 30.242188 69.5 30.339844 C 69.390625 30.441406 69.257812 30.492188 69.109375 30.492188 C 68.949219 30.492188 68.839844 30.464844 68.773438 30.402344 C 68.707031 30.347656 68.671875 30.277344 68.660156 30.203125 C 68.648438 30.128906 68.644531 30.007812 68.644531 29.839844 L 68.632812 29.625 C 68.621094 29.210938 68.59375 28.851562 68.550781 28.550781 C 68.53125 28.425781 68.484375 28.335938 68.414062 28.285156 C 68.339844 28.234375 68.246094 28.207031 68.128906 28.207031 C 68.019531 28.207031 67.890625 28.226562 67.738281 28.261719 C 67.503906 28.320312 67.347656 28.371094 67.269531 28.40625 C 67.191406 28.4375 67.074219 28.511719 66.925781 28.621094 C 66.875 28.65625 66.84375 28.726562 66.820312 28.828125 C 66.800781 28.933594 66.789062 28.992188 66.789062 29.003906 C 66.703125 29.445312 66.605469 29.972656 66.503906 30.585938 C 66.496094 30.613281 66.480469 30.679688 66.460938 30.78125 C 66.441406 30.886719 66.402344 30.960938 66.34375 31.003906 C 66.285156 31.050781 66.199219 31.066406 66.089844 31.050781 C 65.65625 30.996094 65.4375 30.8125 65.429688 30.503906 C 65.425781 30.101562 65.457031 29.632812 65.523438 29.085938 C 65.570312 28.695312 65.617188 28.378906 65.65625 28.136719 C 65.671875 28.027344 65.691406 27.890625 65.714844 27.734375 C 65.738281 27.574219 65.761719 27.390625 65.78125 27.183594 C 65.800781 27.027344 65.824219 26.910156 65.84375 26.832031 C 65.863281 26.757812 65.910156 26.695312 65.988281 26.640625 C 66.0625 26.589844 66.179688 26.566406 66.335938 26.566406 C 66.535156 26.566406 66.703125 26.609375 66.832031 26.699219 C 66.960938 26.789062 67.042969 26.917969 67.078125 27.082031 Z M 73.585938 30.472656 C 73.527344 30.445312 73.464844 30.429688 73.402344 30.429688 C 73.339844 30.429688 73.285156 30.445312 73.242188 30.476562 C 73.199219 30.507812 73.148438 30.554688 73.09375 30.617188 C 73.011719 30.699219 72.925781 30.769531 72.835938 30.824219 C 72.753906 30.871094 72.601562 30.917969 72.382812 30.957031 C 72.285156 30.972656 72.207031 30.976562 72.144531 30.976562 C 71.855469 30.976562 71.558594 30.914062 71.246094 30.785156 C 70.933594 30.660156 70.710938 30.507812 70.582031 30.328125 C 70.441406 30.132812 70.378906 29.925781 70.382812 29.707031 C 70.390625 29.375 70.527344 29.046875 70.796875 28.714844 C 71.058594 28.398438 71.296875 28.175781 71.511719 28.042969 C 71.730469 27.914062 72.027344 27.828125 72.402344 27.796875 C 72.484375 27.796875 72.605469 27.78125 72.757812 27.753906 C 72.914062 27.726562 72.988281 27.6875 72.988281 27.640625 C 72.988281 27.542969 72.949219 27.457031 72.863281 27.375 C 72.777344 27.296875 72.601562 27.257812 72.339844 27.257812 C 72.246094 27.257812 72.101562 27.265625 71.910156 27.277344 C 71.714844 27.292969 71.582031 27.300781 71.507812 27.300781 C 71.273438 27.300781 71.105469 27.261719 71.003906 27.183594 C 70.976562 27.171875 70.960938 27.105469 70.960938 26.988281 C 70.960938 26.78125 71.035156 26.652344 71.175781 26.597656 C 71.472656 26.484375 71.777344 26.425781 72.09375 26.421875 C 72.492188 26.421875 72.863281 26.507812 73.203125 26.683594 C 73.542969 26.859375 73.789062 27.078125 73.949219 27.339844 C 74.105469 27.601562 74.207031 27.964844 74.257812 28.425781 C 74.3125 28.941406 74.339844 29.601562 74.339844 30.398438 C 74.339844 30.621094 74.308594 30.746094 74.246094 30.78125 C 74.191406 30.816406 74.140625 30.832031 74.09375 30.832031 C 74.03125 30.832031 73.972656 30.816406 73.921875 30.777344 C 73.871094 30.738281 73.8125 30.683594 73.753906 30.617188 C 73.691406 30.539062 73.636719 30.492188 73.585938 30.472656 Z M 71.960938 30.347656 C 72.28125 30.25 72.597656 30.097656 72.90625 29.882812 C 72.976562 29.835938 73.039062 29.773438 73.09375 29.695312 C 73.148438 29.621094 73.183594 29.574219 73.195312 29.550781 C 73.210938 29.53125 73.222656 29.472656 73.234375 29.371094 C 73.242188 29.269531 73.242188 29.191406 73.238281 29.128906 C 73.230469 29.109375 73.21875 29.050781 73.203125 28.964844 C 73.183594 28.875 73.160156 28.792969 73.125 28.726562 C 73.089844 28.671875 73.035156 28.617188 72.960938 28.570312 C 72.882812 28.523438 72.816406 28.5 72.753906 28.507812 C 72.621094 28.515625 72.480469 28.5625 72.332031 28.652344 C 72.179688 28.742188 72.039062 28.863281 71.910156 29.015625 C 71.777344 29.171875 71.675781 29.332031 71.605469 29.496094 C 71.535156 29.65625 71.496094 29.808594 71.496094 29.945312 C 71.511719 30.132812 71.5625 30.253906 71.652344 30.316406 C 71.699219 30.351562 71.757812 30.367188 71.828125 30.367188 C 71.882812 30.367188 71.925781 30.363281 71.960938 30.347656 Z M 76.882812 26.617188 C 76.902344 26.6875 76.90625 26.792969 76.894531 26.9375 L 76.769531 28.15625 C 76.804688 28.128906 76.855469 28.03125 76.925781 27.859375 C 76.992188 27.691406 77.058594 27.554688 77.121094 27.449219 C 77.179688 27.34375 77.230469 27.273438 77.265625 27.238281 C 77.585938 26.925781 77.949219 26.742188 78.355469 26.679688 C 78.761719 26.617188 79.207031 26.589844 79.695312 26.597656 C 79.742188 26.597656 79.796875 26.613281 79.855469 26.652344 C 79.914062 26.691406 79.941406 26.722656 79.941406 26.746094 C 79.941406 26.769531 79.921875 26.808594 79.878906 26.859375 C 79.839844 26.910156 79.800781 26.945312 79.765625 26.957031 C 79.355469 27.097656 78.992188 27.253906 78.679688 27.433594 C 78.367188 27.613281 78.097656 27.847656 77.871094 28.136719 C 77.335938 28.816406 77.027344 29.519531 76.945312 30.246094 C 76.925781 30.4375 76.867188 30.566406 76.769531 30.632812 C 76.671875 30.695312 76.539062 30.730469 76.367188 30.730469 C 76.175781 30.730469 76.003906 30.648438 75.851562 30.480469 C 75.703125 30.316406 75.625 30.132812 75.625 29.933594 C 75.632812 29.203125 75.636719 28.109375 75.636719 26.648438 C 75.636719 26.449219 75.679688 26.308594 75.769531 26.226562 C 75.859375 26.148438 76.019531 26.109375 76.253906 26.109375 C 76.425781 26.109375 76.574219 26.160156 76.691406 26.253906 C 76.8125 26.351562 76.875 26.472656 76.882812 26.617188 Z M 80.179688 33.914062 C 80.226562 33.898438 80.289062 33.882812 80.363281 33.859375 C 80.4375 33.832031 80.503906 33.816406 80.558594 33.808594 C 81.054688 33.796875 81.417969 33.691406 81.648438 33.5 C 81.875 33.308594 82.023438 32.964844 82.082031 32.476562 C 82.144531 31.988281 82.207031 31.253906 82.269531 30.277344 L 82.308594 29.613281 C 82.316406 29.457031 82.289062 29.332031 82.222656 29.25 C 82.15625 29.160156 82.039062 29.109375 81.867188 29.085938 C 81.496094 29.046875 81.175781 28.902344 80.90625 28.652344 C 80.632812 28.40625 80.445312 28.089844 80.34375 27.710938 C 80.308594 27.59375 80.269531 27.457031 80.230469 27.300781 C 80.148438 26.996094 80.089844 26.769531 80.054688 26.617188 L 80.054688 26.597656 C 80.054688 26.554688 80.070312 26.507812 80.097656 26.457031 C 80.125 26.40625 80.152344 26.367188 80.179688 26.347656 C 80.289062 26.273438 80.414062 26.234375 80.558594 26.234375 C 80.75 26.234375 80.921875 26.300781 81.074219 26.433594 C 81.226562 26.570312 81.3125 26.738281 81.332031 26.9375 C 81.367188 27.246094 81.425781 27.585938 81.507812 27.949219 C 81.542969 28.09375 81.605469 28.167969 81.703125 28.167969 C 81.777344 28.167969 81.84375 28.128906 81.898438 28.054688 C 82.078125 27.824219 82.214844 27.605469 82.308594 27.390625 C 82.425781 27.128906 82.597656 27 82.824219 27 C 82.886719 27 82.929688 27.003906 82.957031 27.007812 C 83.316406 27.078125 83.488281 27.300781 83.472656 27.671875 L 83.441406 28.632812 C 83.414062 29.488281 83.382812 30.125 83.351562 30.542969 L 83.320312 30.957031 C 83.277344 31.523438 83.238281 31.960938 83.203125 32.277344 C 83.164062 32.589844 83.101562 32.902344 83.019531 33.222656 C 82.917969 33.621094 82.730469 33.917969 82.453125 34.117188 C 82.179688 34.3125 81.855469 34.410156 81.484375 34.410156 C 81.191406 34.410156 80.894531 34.351562 80.601562 34.234375 C 80.539062 34.207031 80.464844 34.171875 80.382812 34.125 C 80.300781 34.082031 80.238281 34.042969 80.199219 34.015625 Z M 80.179688 33.914062 "/>
</g>
<g clip-path="url(#clip2)" clip-rule="nonzero">
<path style=" stroke:none;fill-rule:nonzero;fill:rgb(36.862745%,15.294118%,31.372549%);fill-opacity:1;" d="M 50.449219 35.917969 C 50.523438 35.933594 50.691406 36.195312 50.953125 36.707031 C 51.210938 37.222656 51.53125 37.886719 51.910156 38.699219 L 52.238281 39.390625 C 52.382812 39.234375 52.515625 39.046875 52.640625 38.835938 C 52.765625 38.628906 52.917969 38.34375 53.105469 37.984375 C 53.316406 37.578125 53.464844 37.316406 53.546875 37.199219 C 53.875 36.695312 54.234375 36.164062 54.617188 35.597656 C 54.667969 35.523438 54.753906 35.46875 54.875 35.441406 C 54.894531 35.4375 54.929688 35.433594 54.980469 35.433594 C 55.144531 35.433594 55.328125 35.5 55.53125 35.640625 C 55.730469 35.777344 55.863281 35.917969 55.925781 36.0625 C 55.941406 36.089844 55.945312 36.140625 55.945312 36.21875 C 55.945312 36.285156 55.941406 36.339844 55.9375 36.375 C 55.921875 36.433594 55.90625 36.511719 55.890625 36.605469 C 55.871094 36.699219 55.855469 36.808594 55.84375 36.929688 C 55.625 38.613281 55.464844 39.875 55.371094 40.714844 C 55.34375 40.90625 55.328125 41.125 55.328125 41.363281 L 55.308594 41.695312 C 55.300781 41.765625 55.296875 41.84375 55.296875 41.933594 C 55.296875 42.023438 55.289062 42.085938 55.265625 42.121094 C 55.246094 42.152344 55.207031 42.171875 55.152344 42.171875 C 55.113281 42.171875 55.050781 42.160156 54.96875 42.140625 C 54.75 42.09375 54.582031 42.003906 54.464844 41.875 C 54.347656 41.75 54.28125 41.570312 54.269531 41.34375 C 54.261719 41.226562 54.257812 41.042969 54.257812 40.796875 C 54.257812 40.542969 54.265625 40.152344 54.277344 39.628906 L 54.289062 39.058594 L 54.308594 38.242188 C 54.246094 38.300781 54.089844 38.515625 53.839844 38.890625 C 53.589844 39.265625 53.34375 39.65625 53.105469 40.0625 C 52.863281 40.46875 52.707031 40.78125 52.628906 41.003906 C 52.5625 41.175781 52.496094 41.304688 52.429688 41.386719 C 52.363281 41.46875 52.289062 41.511719 52.199219 41.511719 C 52.117188 41.511719 52.007812 41.472656 51.878906 41.394531 C 51.507812 41.167969 51.28125 40.855469 51.199219 40.457031 C 51.070312 39.84375 50.90625 39.207031 50.714844 38.542969 C 50.679688 38.417969 50.613281 38.25 50.515625 38.039062 C 50.414062 37.824219 50.351562 37.6875 50.324219 37.632812 L 50.191406 37.367188 C 49.1875 38.703125 48.507812 39.929688 48.152344 41.042969 C 48.082031 41.277344 48.015625 41.445312 47.957031 41.546875 C 47.894531 41.644531 47.820312 41.695312 47.738281 41.695312 C 47.609375 41.695312 47.421875 41.578125 47.183594 41.34375 C 46.996094 41.179688 46.90625 40.992188 46.90625 40.785156 C 46.90625 40.675781 46.925781 40.566406 46.964844 40.457031 C 47.253906 39.601562 47.683594 38.792969 48.253906 38.027344 L 48.574219 37.601562 C 49.003906 37.03125 49.332031 36.582031 49.550781 36.257812 C 49.714844 36.019531 49.9375 35.898438 50.210938 35.898438 C 50.257812 35.898438 50.335938 35.90625 50.449219 35.917969 Z M 59.808594 41.851562 C 59.746094 41.824219 59.683594 41.808594 59.621094 41.808594 C 59.5625 41.808594 59.507812 41.824219 59.464844 41.855469 C 59.417969 41.886719 59.367188 41.933594 59.3125 41.996094 C 59.230469 42.078125 59.144531 42.148438 59.054688 42.203125 C 58.972656 42.25 58.824219 42.296875 58.601562 42.335938 C 58.507812 42.351562 58.429688 42.355469 58.367188 42.355469 C 58.078125 42.355469 57.777344 42.292969 57.464844 42.164062 C 57.152344 42.039062 56.933594 41.886719 56.800781 41.707031 C 56.664062 41.511719 56.597656 41.308594 56.605469 41.085938 C 56.613281 40.753906 56.75 40.425781 57.015625 40.09375 C 57.277344 39.777344 57.515625 39.554688 57.730469 39.421875 C 57.949219 39.292969 58.246094 39.207031 58.625 39.175781 C 58.707031 39.175781 58.824219 39.160156 58.980469 39.132812 C 59.132812 39.105469 59.210938 39.066406 59.210938 39.019531 C 59.210938 38.921875 59.167969 38.835938 59.082031 38.753906 C 58.996094 38.675781 58.824219 38.636719 58.5625 38.636719 C 58.464844 38.636719 58.320312 38.644531 58.128906 38.65625 C 57.9375 38.671875 57.804688 38.679688 57.726562 38.679688 C 57.496094 38.679688 57.328125 38.640625 57.222656 38.5625 C 57.195312 38.550781 57.183594 38.484375 57.183594 38.367188 C 57.183594 38.160156 57.253906 38.03125 57.398438 37.976562 C 57.695312 37.863281 58 37.804688 58.316406 37.800781 C 58.714844 37.800781 59.082031 37.886719 59.421875 38.0625 C 59.761719 38.238281 60.011719 38.457031 60.167969 38.71875 C 60.328125 38.980469 60.429688 39.34375 60.476562 39.804688 C 60.53125 40.320312 60.558594 40.980469 60.558594 41.777344 C 60.558594 42 60.527344 42.125 60.46875 42.160156 C 60.414062 42.195312 60.359375 42.210938 60.3125 42.210938 C 60.25 42.210938 60.195312 42.195312 60.144531 42.15625 C 60.09375 42.117188 60.035156 42.0625 59.972656 41.996094 C 59.910156 41.917969 59.855469 41.871094 59.808594 41.851562 Z M 58.179688 41.726562 C 58.503906 41.628906 58.820312 41.476562 59.128906 41.261719 C 59.199219 41.214844 59.257812 41.152344 59.3125 41.074219 C 59.367188 41 59.402344 40.953125 59.417969 40.929688 C 59.429688 40.910156 59.441406 40.851562 59.453125 40.75 C 59.464844 40.648438 59.464844 40.570312 59.457031 40.507812 C 59.453125 40.488281 59.441406 40.429688 59.421875 40.34375 C 59.40625 40.253906 59.378906 40.171875 59.34375 40.105469 C 59.3125 40.050781 59.253906 39.996094 59.179688 39.949219 C 59.105469 39.902344 59.035156 39.878906 58.972656 39.886719 C 58.84375 39.894531 58.703125 39.941406 58.550781 40.03125 C 58.402344 40.121094 58.261719 40.242188 58.128906 40.394531 C 58 40.550781 57.898438 40.710938 57.828125 40.875 C 57.753906 41.035156 57.71875 41.1875 57.71875 41.324219 C 57.730469 41.511719 57.78125 41.632812 57.871094 41.695312 C 57.921875 41.730469 57.980469 41.746094 58.046875 41.746094 C 58.101562 41.746094 58.148438 41.742188 58.179688 41.726562 Z M 65.007812 39.773438 C 64.988281 40.269531 64.953125 40.644531 64.90625 40.898438 C 64.859375 41.15625 64.765625 41.398438 64.625 41.628906 C 64.480469 41.859375 64.253906 42.125 63.9375 42.429688 L 64.296875 42.625 C 64.519531 42.75 64.679688 42.835938 64.78125 42.882812 C 65.089844 43.027344 65.324219 43.214844 65.484375 43.4375 C 65.640625 43.660156 65.71875 43.90625 65.71875 44.175781 C 65.71875 44.507812 65.609375 44.835938 65.390625 45.15625 C 65.15625 45.503906 64.863281 45.757812 64.515625 45.929688 C 64.164062 46.097656 63.789062 46.183594 63.390625 46.191406 C 63.097656 46.199219 62.792969 46.148438 62.484375 46.046875 C 62.339844 46 62.199219 45.894531 62.054688 45.734375 C 61.910156 45.570312 61.792969 45.390625 61.710938 45.1875 C 61.621094 44.988281 61.582031 44.8125 61.589844 44.660156 C 61.597656 44.628906 61.609375 44.589844 61.632812 44.554688 C 61.652344 44.515625 61.675781 44.492188 61.703125 44.488281 C 61.710938 44.480469 61.722656 44.476562 61.746094 44.476562 C 61.765625 44.476562 61.792969 44.484375 61.832031 44.503906 C 61.871094 44.519531 61.894531 44.53125 61.910156 44.539062 C 61.945312 44.550781 61.96875 44.582031 61.980469 44.632812 C 62.078125 44.84375 62.183594 45.011719 62.300781 45.136719 C 62.417969 45.261719 62.570312 45.316406 62.765625 45.304688 C 63.472656 45.253906 63.953125 45.058594 64.214844 44.714844 C 64.304688 44.605469 64.378906 44.476562 64.4375 44.335938 C 64.496094 44.195312 64.523438 44.0625 64.523438 43.9375 C 64.523438 43.757812 64.480469 43.628906 64.398438 43.546875 C 64.3125 43.464844 64.179688 43.40625 64 43.371094 C 63.808594 43.335938 63.625 43.289062 63.449219 43.226562 C 63.273438 43.164062 63.0625 43.070312 62.816406 42.945312 C 62.691406 42.882812 62.605469 42.828125 62.558594 42.78125 C 62.511719 42.734375 62.484375 42.675781 62.484375 42.605469 C 62.484375 42.535156 62.527344 42.359375 62.609375 42.078125 C 62.625 42.035156 62.558594 41.96875 62.417969 41.871094 C 62.277344 41.773438 62.15625 41.695312 62.054688 41.632812 C 61.683594 41.414062 61.496094 41.054688 61.496094 40.558594 C 61.496094 40.421875 61.507812 40.289062 61.527344 40.167969 C 61.652344 39.410156 62.019531 38.871094 62.628906 38.554688 C 62.773438 38.476562 62.925781 38.441406 63.082031 38.441406 C 63.199219 38.441406 63.320312 38.457031 63.445312 38.492188 C 63.566406 38.527344 63.640625 38.546875 63.660156 38.554688 L 63.875 38.617188 C 63.980469 38.644531 64.078125 38.65625 64.175781 38.65625 C 64.304688 38.65625 64.425781 38.632812 64.53125 38.585938 C 64.636719 38.535156 64.746094 38.460938 64.855469 38.359375 C 65.011719 38.226562 65.179688 38.160156 65.359375 38.160156 C 65.488281 38.160156 65.605469 38.195312 65.710938 38.269531 C 65.8125 38.339844 65.886719 38.445312 65.9375 38.585938 C 65.949219 38.640625 65.957031 38.683594 65.957031 38.71875 C 65.957031 38.78125 65.945312 38.828125 65.925781 38.863281 C 65.90625 38.890625 65.847656 38.980469 65.75 39.132812 C 65.703125 39.222656 65.65625 39.296875 65.617188 39.359375 C 65.574219 39.421875 65.511719 39.492188 65.421875 39.566406 C 65.359375 39.601562 65.292969 39.625 65.226562 39.644531 C 65.15625 39.660156 65.105469 39.675781 65.066406 39.691406 C 65.027344 39.703125 65.007812 39.730469 65.007812 39.773438 Z M 62.847656 39.617188 C 62.632812 39.867188 62.527344 40.117188 62.527344 40.371094 C 62.527344 40.550781 62.585938 40.722656 62.699219 40.882812 C 62.8125 41.046875 62.984375 41.1875 63.21875 41.304688 C 63.476562 41.199219 63.679688 41.019531 63.824219 40.765625 C 63.96875 40.511719 64.039062 40.230469 64.039062 39.929688 C 64.039062 39.742188 64.011719 39.574219 63.957031 39.421875 C 63.902344 39.269531 63.792969 39.152344 63.628906 39.070312 C 63.3125 39.195312 63.050781 39.378906 62.847656 39.617188 Z M 67.5625 37.5625 C 67.550781 37.601562 67.5 37.648438 67.414062 37.695312 C 67.328125 37.746094 67.257812 37.789062 67.203125 37.832031 L 66.914062 37.675781 C 66.632812 37.523438 66.441406 37.402344 66.335938 37.3125 C 66.28125 37.273438 66.253906 37.222656 66.253906 37.160156 C 66.253906 37.117188 66.269531 37.082031 66.300781 37.050781 C 66.332031 37.019531 66.378906 37.003906 66.441406 37.003906 C 66.707031 37.003906 67.035156 37.074219 67.417969 37.210938 C 67.460938 37.21875 67.496094 37.261719 67.53125 37.347656 C 67.566406 37.4375 67.578125 37.507812 67.5625 37.5625 Z M 66.636719 39.484375 C 66.65625 39.394531 66.671875 39.328125 66.675781 39.289062 C 66.683594 39.246094 66.6875 39.203125 66.6875 39.152344 C 66.6875 39.058594 66.71875 38.980469 66.777344 38.925781 C 66.832031 38.871094 66.945312 38.84375 67.109375 38.84375 C 67.300781 38.84375 67.472656 38.902344 67.617188 39.023438 C 67.765625 39.144531 67.859375 39.300781 67.890625 39.496094 C 67.914062 39.589844 67.925781 39.699219 67.933594 39.816406 C 67.941406 39.933594 67.945312 40.007812 67.945312 40.042969 L 68.089844 41.808594 C 68.109375 41.996094 68.082031 42.136719 68.011719 42.238281 C 67.9375 42.339844 67.804688 42.386719 67.605469 42.386719 C 67.433594 42.386719 67.285156 42.339844 67.167969 42.242188 C 67.046875 42.148438 66.972656 42.023438 66.945312 41.871094 L 66.675781 39.679688 Z M 72.496094 41.324219 C 72.289062 41.558594 72.082031 41.742188 71.867188 41.875 C 71.65625 42.011719 71.417969 42.078125 71.15625 42.078125 C 71.101562 42.078125 71.027344 42.070312 70.929688 42.058594 L 70.722656 42.066406 C 69.859375 42.074219 69.226562 41.660156 68.828125 40.828125 C 68.742188 40.636719 68.695312 40.402344 68.695312 40.136719 C 68.695312 39.902344 68.730469 39.675781 68.796875 39.464844 C 68.867188 39.25 68.964844 39.074219 69.085938 38.9375 L 69.28125 38.699219 C 69.378906 38.574219 69.453125 38.488281 69.507812 38.441406 C 69.75 38.207031 70.070312 38.089844 70.46875 38.089844 C 70.671875 38.089844 70.875 38.125 71.074219 38.191406 C 71.273438 38.261719 71.449219 38.355469 71.601562 38.472656 C 71.628906 38.492188 71.65625 38.535156 71.683594 38.597656 C 71.710938 38.664062 71.722656 38.71875 71.722656 38.761719 C 71.722656 38.816406 71.683594 38.875 71.601562 38.941406 C 71.515625 39.007812 71.441406 39.035156 71.375 39.03125 C 70.90625 38.972656 70.53125 39.085938 70.25 39.363281 C 69.96875 39.644531 69.828125 40.023438 69.828125 40.507812 C 69.828125 40.824219 69.894531 41.046875 70.03125 41.179688 C 70.164062 41.308594 70.382812 41.375 70.695312 41.375 C 70.886719 41.375 71.066406 41.335938 71.238281 41.253906 C 71.410156 41.175781 71.609375 41.066406 71.835938 40.921875 L 72.03125 40.796875 C 72.101562 40.761719 72.191406 40.738281 72.304688 40.726562 C 72.417969 40.71875 72.507812 40.710938 72.566406 40.703125 C 72.5625 40.765625 72.558594 40.824219 72.5625 40.882812 C 72.566406 40.941406 72.566406 40.988281 72.566406 41.023438 C 72.566406 41.175781 72.542969 41.277344 72.496094 41.324219 Z M 74.460938 37.5625 C 74.449219 37.601562 74.398438 37.648438 74.3125 37.695312 C 74.226562 37.746094 74.15625 37.789062 74.101562 37.832031 L 73.8125 37.675781 C 73.53125 37.523438 73.339844 37.402344 73.238281 37.3125 C 73.183594 37.273438 73.15625 37.222656 73.15625 37.160156 C 73.15625 37.117188 73.171875 37.082031 73.203125 37.050781 C 73.234375 37.019531 73.277344 37.003906 73.339844 37.003906 C 73.609375 37.003906 73.933594 37.074219 74.320312 37.210938 C 74.359375 37.21875 74.398438 37.261719 74.433594 37.347656 C 74.464844 37.4375 74.476562 37.507812 74.460938 37.5625 Z M 73.535156 39.484375 C 73.554688 39.394531 73.570312 39.328125 73.578125 39.289062 C 73.582031 39.246094 73.585938 39.203125 73.585938 39.152344 C 73.585938 39.058594 73.617188 38.980469 73.675781 38.925781 C 73.734375 38.871094 73.84375 38.84375 74.007812 38.84375 C 74.203125 38.84375 74.371094 38.902344 74.519531 39.023438 C 74.667969 39.144531 74.757812 39.300781 74.792969 39.496094 C 74.8125 39.589844 74.828125 39.699219 74.832031 39.816406 C 74.839844 39.933594 74.84375 40.007812 74.84375 40.042969 L 74.988281 41.808594 C 75.007812 41.996094 74.980469 42.136719 74.910156 42.238281 C 74.839844 42.339844 74.703125 42.386719 74.503906 42.386719 C 74.332031 42.386719 74.1875 42.339844 74.066406 42.242188 C 73.945312 42.148438 73.871094 42.023438 73.84375 41.871094 L 73.578125 39.679688 Z M 79.003906 41.851562 C 78.941406 41.824219 78.878906 41.808594 78.820312 41.808594 C 78.757812 41.808594 78.703125 41.824219 78.660156 41.855469 C 78.613281 41.886719 78.566406 41.933594 78.511719 41.996094 C 78.425781 42.078125 78.339844 42.148438 78.253906 42.203125 C 78.171875 42.25 78.019531 42.296875 77.800781 42.335938 C 77.703125 42.351562 77.625 42.355469 77.5625 42.355469 C 77.273438 42.355469 76.972656 42.292969 76.660156 42.164062 C 76.347656 42.039062 76.128906 41.886719 75.996094 41.707031 C 75.859375 41.511719 75.792969 41.308594 75.800781 41.085938 C 75.808594 40.753906 75.945312 40.425781 76.214844 40.09375 C 76.472656 39.777344 76.714844 39.554688 76.929688 39.421875 C 77.144531 39.292969 77.441406 39.207031 77.820312 39.175781 C 77.902344 39.175781 78.019531 39.160156 78.175781 39.132812 C 78.328125 39.105469 78.40625 39.066406 78.40625 39.019531 C 78.40625 38.921875 78.363281 38.835938 78.277344 38.753906 C 78.191406 38.675781 78.019531 38.636719 77.757812 38.636719 C 77.660156 38.636719 77.519531 38.644531 77.324219 38.65625 C 77.132812 38.671875 77 38.679688 76.925781 38.679688 C 76.691406 38.679688 76.523438 38.640625 76.417969 38.5625 C 76.390625 38.550781 76.378906 38.484375 76.378906 38.367188 C 76.378906 38.160156 76.449219 38.03125 76.59375 37.976562 C 76.890625 37.863281 77.195312 37.804688 77.511719 37.800781 C 77.910156 37.800781 78.277344 37.886719 78.617188 38.0625 C 78.957031 38.238281 79.207031 38.457031 79.363281 38.71875 C 79.523438 38.980469 79.625 39.34375 79.671875 39.804688 C 79.730469 40.320312 79.757812 40.980469 79.757812 41.777344 C 79.757812 42 79.726562 42.125 79.664062 42.160156 C 79.609375 42.195312 79.558594 42.210938 79.507812 42.210938 C 79.445312 42.210938 79.390625 42.195312 79.339844 42.15625 C 79.285156 42.117188 79.230469 42.0625 79.167969 41.996094 C 79.105469 41.917969 79.050781 41.871094 79.003906 41.851562 Z M 77.378906 41.726562 C 77.699219 41.628906 78.015625 41.476562 78.324219 41.261719 C 78.394531 41.214844 78.453125 41.152344 78.511719 41.074219 C 78.566406 41 78.597656 40.953125 78.613281 40.929688 C 78.625 40.910156 78.636719 40.851562 78.648438 40.75 C 78.660156 40.648438 78.660156 40.570312 78.652344 40.507812 C 78.648438 40.488281 78.636719 40.429688 78.617188 40.34375 C 78.601562 40.253906 78.574219 40.171875 78.539062 40.105469 C 78.507812 40.050781 78.453125 39.996094 78.375 39.949219 C 78.300781 39.902344 78.230469 39.878906 78.171875 39.886719 C 78.039062 39.894531 77.898438 39.941406 77.746094 40.03125 C 77.597656 40.121094 77.457031 40.242188 77.324219 40.394531 C 77.195312 40.550781 77.09375 40.710938 77.019531 40.875 C 76.949219 41.035156 76.914062 41.1875 76.914062 41.324219 C 76.925781 41.511719 76.980469 41.632812 77.066406 41.695312 C 77.117188 41.730469 77.175781 41.746094 77.242188 41.746094 C 77.296875 41.746094 77.34375 41.742188 77.378906 41.726562 Z M 82.496094 38.480469 C 82.496094 38.523438 82.488281 38.578125 82.476562 38.644531 C 82.460938 38.707031 82.457031 38.75 82.464844 38.769531 C 82.9375 38.667969 83.339844 38.617188 83.667969 38.617188 C 84.183594 38.617188 84.570312 38.863281 84.832031 39.359375 C 85.046875 39.78125 85.152344 40.246094 85.152344 40.753906 C 85.152344 40.886719 85.136719 41.074219 85.109375 41.324219 C 85.089844 41.488281 85.023438 41.621094 84.914062 41.71875 C 84.804688 41.820312 84.675781 41.871094 84.523438 41.871094 C 84.367188 41.871094 84.253906 41.84375 84.1875 41.78125 C 84.125 41.726562 84.085938 41.65625 84.074219 41.582031 C 84.066406 41.507812 84.0625 41.386719 84.0625 41.21875 L 84.050781 41.003906 C 84.035156 40.589844 84.007812 40.230469 83.96875 39.929688 C 83.949219 39.804688 83.902344 39.714844 83.828125 39.664062 C 83.757812 39.613281 83.664062 39.585938 83.546875 39.585938 C 83.4375 39.585938 83.304688 39.605469 83.15625 39.640625 C 82.921875 39.703125 82.765625 39.75 82.683594 39.785156 C 82.605469 39.820312 82.492188 39.890625 82.339844 40 C 82.292969 40.035156 82.257812 40.105469 82.238281 40.207031 C 82.21875 40.3125 82.207031 40.371094 82.207031 40.382812 C 82.117188 40.824219 82.023438 41.351562 81.917969 41.964844 C 81.910156 41.992188 81.898438 42.058594 81.878906 42.160156 C 81.855469 42.265625 81.816406 42.339844 81.757812 42.382812 C 81.699219 42.429688 81.617188 42.445312 81.507812 42.429688 C 81.074219 42.375 80.855469 42.191406 80.847656 41.882812 C 80.839844 41.480469 80.871094 41.011719 80.941406 40.464844 C 80.988281 40.074219 81.03125 39.757812 81.074219 39.515625 C 81.089844 39.40625 81.105469 39.269531 81.128906 39.113281 C 81.15625 38.953125 81.175781 38.769531 81.199219 38.5625 C 81.21875 38.40625 81.238281 38.289062 81.257812 38.214844 C 81.28125 38.136719 81.328125 38.074219 81.402344 38.019531 C 81.480469 37.96875 81.597656 37.945312 81.753906 37.945312 C 81.953125 37.945312 82.117188 37.988281 82.25 38.078125 C 82.378906 38.167969 82.460938 38.296875 82.496094 38.460938 Z M 82.496094 38.480469 "/>
</g>
<g clip-path="url(#clip3)" clip-rule="nonzero">
<path style=" stroke:none;fill-rule:nonzero;fill:rgb(100%,84.313725%,0%);fill-opacity:1;" d="M 39.667969 18.253906 L 39.855469 19.695312 L 40.5 19.925781 L 39.855469 20.152344 L 39.667969 21.554688 L 39.441406 20.152344 L 38.796875 19.925781 L 39.441406 19.695312 Z M 39.667969 18.253906 "/>
</g>
<g clip-path="url(#clip4)" clip-rule="nonzero">
<path style=" stroke:none;fill-rule:nonzero;fill:rgb(100%,84.313725%,0%);fill-opacity:1;" d="M 36.226562 17.914062 L 36.644531 20.910156 L 38.003906 21.328125 L 36.644531 21.78125 L 36.226562 24.703125 L 35.8125 21.78125 L 34.488281 21.328125 L 35.851562 20.871094 Z M 36.226562 17.914062 "/>
</g>
<g clip-path="url(#clip5)" clip-rule="nonzero">
<path style=" stroke:none;fill-rule:nonzero;fill:rgb(100%,84.313725%,0%);fill-opacity:1;" d="M 39.742188 22.503906 L 40.007812 24.4375 L 40.875 24.738281 L 40.007812 25.042969 L 39.742188 26.941406 L 39.476562 25.042969 L 38.609375 24.738281 L 39.476562 24.476562 Z M 39.742188 22.503906 "/>
</g>
<path style=" stroke:none;fill-rule:nonzero;fill:rgb(100%,84.313725%,0%);fill-opacity:1;" d="M 11.175781 29.898438 L 11.402344 31.492188 L 12.121094 31.71875 L 11.402344 31.945312 L 11.175781 33.539062 L 10.949219 31.945312 L 10.230469 31.71875 L 10.949219 31.492188 Z M 11.175781 29.898438 "/>
<path style=" stroke:none;fill-rule:nonzero;fill:rgb(100%,84.313725%,0%);fill-opacity:1;" d="M 39.023438 27.734375 C 38.761719 29.289062 32.714844 29.480469 27.273438 28.53125 C 21.792969 27.546875 16.199219 25.269531 16.464844 23.714844 C 16.730469 22.160156 22.777344 21.972656 28.21875 22.917969 C 33.660156 23.90625 39.289062 26.179688 39.023438 27.734375 Z M 39.023438 27.734375 "/>
<g clip-path="url(#clip6)" clip-rule="nonzero">
<path style=" stroke:none;fill-rule:nonzero;fill:rgb(100%,84.313725%,0%);fill-opacity:1;" d="M 34.714844 44.726562 L 35.09375 43.207031 L 38.875 28.265625 C 38.835938 28.304688 38.835938 28.34375 38.796875 28.378906 C 38.34375 28.949219 36.945312 29.253906 35.132812 29.367188 C 35.132812 29.367188 35.09375 29.367188 35.09375 29.367188 C 34.980469 29.367188 34.867188 29.367188 34.753906 29.367188 C 34.714844 29.367188 34.679688 29.367188 34.679688 29.367188 C 34.566406 29.367188 34.488281 29.367188 34.375 29.367188 C 34.339844 29.367188 34.300781 29.367188 34.261719 29.367188 C 34.148438 29.367188 34.074219 29.367188 33.960938 29.367188 C 33.921875 29.367188 33.847656 29.367188 33.808594 29.367188 C 33.734375 29.367188 33.621094 29.367188 33.546875 29.367188 C 33.46875 29.367188 33.433594 29.367188 33.355469 29.367188 C 33.28125 29.367188 33.167969 29.367188 33.09375 29.367188 C 33.015625 29.367188 32.941406 29.367188 32.902344 29.367188 C 32.828125 29.367188 32.75 29.367188 32.636719 29.367188 C 32.5625 29.367188 32.488281 29.367188 32.410156 29.367188 C 32.335938 29.367188 32.261719 29.367188 32.183594 29.367188 C 32.109375 29.367188 32.035156 29.367188 31.957031 29.367188 C 31.882812 29.367188 31.808594 29.367188 31.730469 29.367188 C 31.65625 29.367188 31.542969 29.367188 31.46875 29.367188 C 31.390625 29.367188 31.316406 29.367188 31.242188 29.367188 C 31.164062 29.367188 31.050781 29.367188 30.976562 29.328125 C 30.898438 29.328125 30.824219 29.328125 30.75 29.328125 C 30.636719 29.328125 30.558594 29.328125 30.445312 29.289062 C 30.371094 29.289062 30.296875 29.289062 30.257812 29.289062 C 30.144531 29.289062 30.070312 29.253906 29.957031 29.253906 C 29.878906 29.253906 29.84375 29.253906 29.765625 29.214844 C 29.652344 29.214844 29.539062 29.175781 29.425781 29.175781 C 29.351562 29.175781 29.3125 29.175781 29.238281 29.140625 C 29.125 29.140625 29.011719 29.101562 28.898438 29.101562 C 28.859375 29.101562 28.785156 29.101562 28.746094 29.0625 C 28.632812 29.0625 28.480469 29.023438 28.367188 29.023438 C 28.332031 29.023438 28.292969 29.023438 28.253906 29.023438 C 28.105469 28.988281 27.914062 28.988281 27.765625 28.949219 C 27.539062 28.910156 27.347656 28.910156 27.195312 28.875 C 27.046875 28.835938 26.855469 28.796875 26.707031 28.796875 C 26.554688 28.761719 26.367188 28.722656 26.214844 28.683594 C 26.175781 28.683594 26.140625 28.683594 26.101562 28.644531 C 25.988281 28.609375 25.835938 28.609375 25.722656 28.570312 C 25.6875 28.570312 25.609375 28.53125 25.574219 28.53125 C 25.457031 28.496094 25.34375 28.496094 25.230469 28.457031 C 25.15625 28.457031 25.117188 28.417969 25.082031 28.417969 C 24.96875 28.378906 24.855469 28.378906 24.742188 28.34375 C 24.664062 28.34375 24.628906 28.304688 24.550781 28.304688 C 24.4375 28.265625 24.363281 28.265625 24.25 28.230469 C 24.175781 28.230469 24.097656 28.191406 24.0625 28.191406 C 23.984375 28.152344 23.871094 28.152344 23.796875 28.113281 C 23.722656 28.078125 23.644531 28.078125 23.570312 28.039062 C 23.492188 28 23.378906 28 23.304688 27.964844 C 23.230469 27.925781 23.152344 27.925781 23.078125 27.886719 C 23.003906 27.851562 22.925781 27.851562 22.851562 27.8125 C 22.777344 27.773438 22.699219 27.773438 22.625 27.734375 C 22.550781 27.699219 22.472656 27.699219 22.398438 27.660156 C 22.324219 27.621094 22.246094 27.621094 22.171875 27.585938 C 22.097656 27.546875 22.019531 27.546875 21.945312 27.507812 C 21.871094 27.46875 21.792969 27.46875 21.71875 27.433594 C 21.640625 27.394531 21.605469 27.394531 21.527344 27.355469 C 21.453125 27.320312 21.378906 27.28125 21.300781 27.28125 C 21.226562 27.242188 21.1875 27.242188 21.113281 27.203125 C 21.039062 27.167969 20.925781 27.128906 20.847656 27.128906 C 20.8125 27.128906 20.734375 27.089844 20.699219 27.089844 C 20.621094 27.054688 20.507812 27.015625 20.433594 26.976562 C 20.394531 26.976562 20.359375 26.941406 20.320312 26.941406 C 20.207031 26.902344 20.132812 26.863281 20.019531 26.824219 C 19.980469 26.824219 19.980469 26.789062 19.941406 26.789062 C 19.828125 26.75 19.753906 26.710938 19.640625 26.675781 C 19.640625 26.675781 19.640625 26.675781 19.601562 26.675781 C 17.789062 25.878906 16.578125 25.042969 16.464844 24.324219 L 14.878906 39.644531 L 14.726562 41.199219 C 10.722656 41.351562 8.039062 42.261719 7.773438 43.738281 C 7.320312 46.28125 14.273438 49.65625 23.265625 51.246094 C 32.261719 52.800781 39.929688 52.042969 40.347656 49.503906 C 40.613281 48.023438 38.382812 46.242188 34.714844 44.726562 Z M 34.035156 47.605469 C 34.035156 47.644531 34.035156 47.644531 34.035156 47.605469 C 33.808594 48.972656 28.519531 49.160156 23.757812 48.328125 C 18.996094 47.492188 14.121094 45.523438 14.347656 44.15625 L 14.691406 41.273438 C 14.691406 41.273438 14.691406 41.273438 14.691406 41.234375 C 14.691406 41.199219 14.726562 41.121094 14.726562 41.085938 C 14.878906 42.488281 19.675781 44.382812 24.324219 45.21875 C 28.972656 46.050781 34.113281 45.902344 34.714844 44.648438 C 34.714844 44.6875 34.714844 44.761719 34.714844 44.800781 Z M 34.035156 47.605469 "/>
</g>
</g>
</svg>
